# xmcd
#
# Track frame offsets:
#	150
#	13079
#	26760
#	41060
#	55247
#	66943
#	82697
#	98511
#	108227
#	119960
#	136300
#	147664
#	157643
#	167934
#	179630
#	195281
#	210207
#	220090
#
# Disc length: 3135 seconds
#
# Revision: 1
# Processed by: cddbd v1.5.2PL0 Copyright (c) Steve Scherf et al.
# Submitted via: audiograbber 1.83.01
#
DISCID=f80c3d12
DTITLE=Various Artist - Best Of Country Songs Disc 10
DYEAR=2011
DGENRE=Contry
TTITLE0=David Allan Coe - Lesd Me Not Into Temptation
TTITLE1=Mel McDaniel - Baby's Got Her Blue Jeans On
TTITLE2=Moe Bandy - Till I'm Too Old Die Young
TTITLE3=Tanya Tucker - Blood Red And Going Down
TTITLE4=Kitty Wells - It Wasen't God Who Made Honky Tonk Angles
TTITLE5=Juice Newton - Queen Of Hearts
TTITLE6=Buck Owens -  Dust On My Mother's Bible
TTITLE7=Jimmy C.Newman - Louisiana Satureday Night
TTITLE8=Kenny Rogers - Me And Bobby McGee
TTITLE9=Nashville Singers - To All The Girl's I've Loved Before
TTITLE10=Stonewall Jackson - Things To Talk About
TTITLE11=Donna Fargo - Sticks And Stones
TTITLE12=Don Williams and The Pozo Seco Singers - take My Hand For A While
TTITLE13=Rex Allen Jr. - Dream On Texas Ladies
TTITLE14=Stu Stevens - Let's Jonny Go
TTITLE15=Andy Forstman - My Tennessee Home
TTITLE16=Ray Pillow - We're Together Again
TTITLE17=Jeannie C. Riley - Harper Valley P.T.A.
EXTD=
EXTT0=
EXTT1=
EXTT2=
EXTT3=
EXTT4=
EXTT5=
EXTT6=
EXTT7=
EXTT8=
EXTT9=
EXTT10=
EXTT11=
EXTT12=
EXTT13=
EXTT14=
EXTT15=
EXTT16=
EXTT17=
PLAYORDER=
